<svg width="19" height="21" viewBox="0 0 19 21" fill="none" xmlns="http://www.w3.org/2000/svg">
<path fill-rule="evenodd" clip-rule="evenodd" d="M9.11458 2.67094C13.254 2.67094 16.6097 6.01924 16.6097 10.1496L16.6094 15.4911L17.1584 15.4915C17.7498 15.4915 18.2292 15.9698 18.2292 16.5598C18.2292 17.1499 17.7498 17.6282 17.1584 17.6282H12.3268C12.3268 19.3983 10.8886 20.8333 9.11458 20.8333C7.34054 20.8333 5.90239 19.3983 5.90239 17.6282H1.07073C0.479382 17.6282 -7.94726e-08 17.1499 -7.94726e-08 16.5598C-7.94726e-08 15.9698 0.479382 15.4915 1.07073 15.4915L1.61927 15.4911L1.61948 10.1496C1.61948 6.01924 4.97515 2.67094 9.11458 2.67094ZM10.1853 17.6282H8.04385C8.04385 18.2183 8.52324 18.6966 9.11458 18.6966C9.70593 18.6966 10.1853 18.2183 10.1853 17.6282ZM9.11458 4.80769C6.15785 4.80769 3.76094 7.19933 3.76094 10.1496V15.4915H14.4682V10.1496C14.4682 7.19933 12.0713 4.80769 9.11458 4.80769ZM10.1853 7.94728e-08C10.7767 7.94728e-08 11.256 0.478328 11.256 1.06838C11.256 1.65842 10.7767 2.13675 10.1853 2.13675H8.04385C7.45251 2.13675 6.97312 1.65842 6.97312 1.06838C6.97312 0.478328 7.45251 7.94728e-08 8.04385 7.94728e-08H10.1853Z" fill="#9C9C9C"/>
</svg>
