<svg width="17" height="18" viewBox="0 0 17 18" fill="none" xmlns="http://www.w3.org/2000/svg">
<path d="M12.25 1.65584C12.447 1.44791 12.6808 1.28298 12.9382 1.17045C13.1956 1.05792 13.4714 1 13.75 1C14.0286 1 14.3044 1.05792 14.5618 1.17045C14.8192 1.28298 15.053 1.44791 15.25 1.65584C15.447 1.86376 15.6032 2.11061 15.7098 2.38228C15.8165 2.65395 15.8713 2.94512 15.8713 3.23917C15.8713 3.53322 15.8165 3.8244 15.7098 4.09607C15.6032 4.36773 15.447 4.61458 15.25 4.82251L5.125 15.51L1 16.6975L2.125 12.3433L12.25 1.65584Z" stroke="white" stroke-width="2" stroke-linecap="round" stroke-linejoin="round"/>
</svg>
