<svg width="19" height="18" viewBox="0 0 19 18" fill="none" xmlns="http://www.w3.org/2000/svg">
<path d="M2.375 4.5H3.95833H16.625" stroke="#1F3E6C" stroke-width="2" stroke-linecap="round" stroke-linejoin="round"/>
<path d="M15.0418 4.5V15C15.0418 15.3978 14.875 15.7794 14.5781 16.0607C14.2811 16.342 13.8784 16.5 13.4585 16.5H5.54183C5.1219 16.5 4.71918 16.342 4.42224 16.0607C4.12531 15.7794 3.9585 15.3978 3.9585 15V4.5M6.3335 4.5V3C6.3335 2.60218 6.50031 2.22064 6.79724 1.93934C7.09418 1.65804 7.4969 1.5 7.91683 1.5H11.0835C11.5034 1.5 11.9061 1.65804 12.2031 1.93934C12.5 2.22064 12.6668 2.60218 12.6668 3V4.5" stroke="#1F3E6C" stroke-width="2" stroke-linecap="round" stroke-linejoin="round"/>
</svg>
